HIERARCHY
ROOT Hips
{
	OFFSET 0.00000 0.00000 0.00000
	CHANNELS 6 Xposition Yposition Zposition Zrotation Yrotation Xrotation 
	JOINT LHipJoint
	{
		OFFSET 0 0 0
		CHANNELS 3 Zrotation Yrotation Xrotation
		JOINT LeftHip
		{
			OFFSET 1.58161 -1.81893 0.78828
			CHANNELS 3 Zrotation Yrotation Xrotation
			JOINT LeftKnee
			{
				OFFSET 2.53374 -6.96141 0.00000
				CHANNELS 3 Zrotation Yrotation Xrotation
				JOINT LeftAnkle
				{
					OFFSET 2.63509 -7.23986 0.00000
					CHANNELS 3 Zrotation Yrotation Xrotation
					JOINT LeftToe
					{
						OFFSET 0.14115 -0.38781 2.05350
						CHANNELS 3 Zrotation Yrotation Xrotation
						End Site
						{
							OFFSET 0.00000 -0.00000 1.05543
						}
					}
				}
			}
		}
	}
	JOINT RHipJoint
	{
		OFFSET 0 0 0
		CHANNELS 3 Zrotation Yrotation Xrotation
		JOINT RightHip
		{
			OFFSET -1.11138 -1.81893 0.78828
			CHANNELS 3 Zrotation Yrotation Xrotation
			JOINT RightKnee
			{
				OFFSET -2.58392 -7.09926 0.00000
				CHANNELS 3 Zrotation Yrotation Xrotation
				JOINT RightAnkle
				{
					OFFSET -2.66423 -7.31992 0.00000
					CHANNELS 3 Zrotation Yrotation Xrotation
					JOINT RightToe
					{
						OFFSET -0.18831 -0.51739 2.12114
						CHANNELS 3 Zrotation Yrotation Xrotation
						End Site
						{
							OFFSET -0.00000 -0.00000 1.09845
						}
					}
				}
			}
		}
	}
	JOINT lowerback
	{
		OFFSET 0 0 0
		CHANNELS 3 Zrotation Yrotation Xrotation
		JOINT Chest
		{
			OFFSET -0.01511 1.97958 -0.08829
			CHANNELS 3 Zrotation Yrotation Xrotation
			JOINT Chest2
			{
				OFFSET 0.08344 1.97334 -0.04330
				CHANNELS 3 Zrotation Yrotation Xrotation
				JOINT lowerneck
				{
					OFFSET 0 0 0
					CHANNELS 3 Zrotation Yrotation Xrotation
					JOINT Neck
					{
						OFFSET 0.00559 1.76246 0.31246
						CHANNELS 3 Zrotation Yrotation Xrotation
						JOINT Head
						{
							OFFSET -0.07011 1.80354 -0.30524
							CHANNELS 3 Zrotation Yrotation Xrotation
							End Site
							{
								OFFSET -0.02385 1.83547 -0.13906
							}
						}
					}
				}
				JOINT LeftCollar
				{
					OFFSET 0 0 0
					CHANNELS 3 Zrotation Yrotation Xrotation
					JOINT LeftShoulder
					{
						OFFSET 3.20667 1.30156 -0.60240
CHANNELS 3 Zrotation Xrotation Yrotation
						JOINT LeftElbow
						{
OFFSET 0 -4.956630 0.000000
CHANNELS 3 Zrotation Xrotation Yrotation
							JOINT LeftWrist
							{
OFFSET 0 -3.381770 0.000000
CHANNELS 3 Zrotation Xrotation Yrotation
								JOINT lhand
								{
									OFFSET 0 0 0
CHANNELS 3 Zrotation Xrotation Yrotation
									JOINT LFingers
									{
OFFSET 0 -0.662910 0.000000
CHANNELS 3 Zrotation Xrotation Yrotation
										End Site
										{
OFFSET 0 -0.534450 0.000000
										}
									}
								}
								JOINT LThumb
								{
OFFSET 0 0.000000 0.000000
CHANNELS 3 Zrotation Xrotation Yrotation
									End Site
									{
OFFSET 0 -0.542610 0.542610
									}
								}
							}
						}
					}
				}
				JOINT RightCollar
				{
					OFFSET 0 0 0
					CHANNELS 3 Zrotation Yrotation Xrotation
					JOINT RightShoulder
					{
						OFFSET -3.06877 1.34672 -0.60964
CHANNELS 3 Zrotation Xrotation Yrotation
						JOINT RightElbow
						{
OFFSET 0 -5.083650 0.000000
CHANNELS 3 Zrotation Xrotation Yrotation
							JOINT RightWrist
							{
OFFSET 0 -3.359840 0.000000
CHANNELS 3 Zrotation Xrotation Yrotation
								JOINT rhand
								{
									OFFSET 0 0 0
CHANNELS 3 Zrotation Xrotation Yrotation
									JOINT RFingers
									{
OFFSET 0 -0.820760 0.000000
CHANNELS 3 Zrotation Xrotation Yrotation
										End Site
										{
OFFSET 0 -0.661720 0.000000
										}
									}
								}
								JOINT RThumb
								{
OFFSET 0 0.000000 0.000000
CHANNELS 3 Zrotation Xrotation Yrotation
									End Site
									{
OFFSET 0 -0.671820 0.671820
									}
								}
							}
						}
					}
				}
			}
		}
	}
}
MOTION
Frames: 5
Frame Time: 0.008333333333333333
-7.515985 17.806114 3.179928 -9.691230 44.141854 7.088300 0.000000 0.000000 0.000000 1.182432 9.715843 -4.484170 1.206925 6.969658 19.625422 -1.122223 20.086013 -16.378309 0.848518 -5.874914 -16.421994 0.000000 0.000000 0.000000 20.799414 30.636687 -25.916713 -2.983360 -10.668012 31.168160 1.357946 22.011544 -1.412918 -1.592882 -7.960947 22.595474 -11.995889 -10.459269 3.344296 -1.721700 -14.304868 -0.071695 4.752482 -7.103747 0.509032 2.412935 21.177752 -5.308233 -18.172460 31.208950 10.511504 -2.853709 14.080730 7.451108 0.000000 0.000000 0.000000 253.467355 -43.590258 175.161627 21.100973 -31.946022 6.103315 -46.185712 -148.698860 8.267227 0.000000 0.000000 0.000000 -7.125000 0.000000 0.000000 -39.933370 -69.728431 155.043424 0.000000 0.000000 0.000000 -64.123869 -36.771353 -26.846533 -125.386702 -54.694739 -90.099813 -83.447261 -60.159840 -26.598685 0.000000 0.000000 0.000000 7.125000 0.000000 0.000000 -31.847690 -40.309704 -47.966326
-7.511992 17.808289 3.168002 -9.576970 44.168899 7.215292 0.000000 0.000000 0.000000 1.018310 9.660860 -4.547788 1.201913 6.955713 19.584248 -1.121072 20.116164 -16.489908 0.830785 -5.814565 -16.247354 0.000000 0.000000 0.000000 20.633042 30.532193 -26.026502 -2.978656 -10.660458 31.142981 1.363500 22.042284 -1.387387 -1.586978 -7.946934 22.553025 -11.948958 -10.434914 3.362006 -1.731940 -14.267787 -0.001733 4.717205 -7.090460 0.553551 2.330798 21.154610 -5.658327 -18.048326 31.235612 10.782623 -2.758865 14.050503 7.567469 0.000000 0.000000 0.000000 253.388540 -43.605497 174.991092 21.116484 -31.964077 6.111508 -45.892615 -149.056846 8.258841 0.000000 0.000000 0.000000 -7.125000 0.000000 0.000000 -39.252182 -69.734325 155.509880 0.000000 0.000000 0.000000 -64.190491 -36.784272 -26.831875 -125.215453 -54.751801 -89.960013 -83.452605 -60.534115 -26.634605 0.000000 0.000000 0.000000 7.125000 0.000000 0.000000 -31.837735 -40.345246 -47.946254
-7.508430 17.812361 3.155852 -9.459050 44.205533 7.345862 0.000000 0.000000 0.000000 0.851282 9.603095 -4.618978 1.197076 6.942248 19.544452 -1.123808 20.162092 -16.577859 0.828023 -5.805297 -16.220517 0.000000 0.000000 0.000000 20.458392 30.454744 -26.129656 -2.973383 -10.651873 31.114529 1.366349 22.043879 -1.341526 -1.598972 -7.975276 22.639105 -11.916530 -10.419460 3.377043 -1.707083 -14.240199 0.100725 4.717784 -7.086461 0.648033 2.086450 21.156818 -6.123013 -17.909999 31.297044 10.993701 -2.631443 14.030179 7.659928 0.000000 0.000000 0.000000 253.206232 -43.611737 174.792289 21.099320 -31.944098 6.102427 -45.585684 -149.289730 8.275134 0.000000 0.000000 0.000000 -7.125000 0.000000 0.000000 -38.597184 -69.767426 155.932708 0.000000 0.000000 0.000000 -64.357185 -36.929389 -26.897979 -125.006817 -54.820829 -89.789538 -83.368537 -60.610505 -26.569635 0.000000 0.000000 0.000000 7.125000 0.000000 0.000000 -31.781466 -40.166052 -47.864773
-7.505314 17.818204 3.144235 -9.363511 44.251722 7.460120 0.000000 0.000000 0.000000 0.707299 9.572527 -4.704624 1.193123 6.931196 19.511696 -1.133675 20.222761 -16.579772 0.853414 -5.890789 -16.468182 0.000000 0.000000 0.000000 20.300857 30.408671 -26.217994 -2.967580 -10.642305 31.082919 1.366195 22.022115 -1.293903 -1.617058 -8.018062 22.768914 -11.897760 -10.420377 3.389682 -1.638287 -14.233534 0.219613 4.763879 -7.096308 0.779291 1.722716 21.195995 -6.621429 -17.804983 31.407748 11.120082 -2.495166 14.032156 7.723309 0.000000 0.000000 0.000000 252.926440 -43.647645 174.564916 21.041225 -31.876417 6.071729 -45.317582 -149.421598 8.253965 0.000000 0.000000 0.000000 -7.125000 0.000000 0.000000 -37.952985 -69.755623 156.383589 0.000000 0.000000 0.000000 -64.612988 -37.196554 -27.011147 -124.771406 -54.898237 -89.597030 -83.194170 -60.408674 -26.374760 0.000000 0.000000 0.000000 7.125000 0.000000 0.000000 -31.689785 -39.747356 -47.742080
-7.503761 17.822420 3.133659 -9.315957 44.300385 7.520469 0.000000 0.000000 0.000000 0.616185 9.644635 -4.810973 1.191644 6.926980 19.499123 -1.155196 20.290135 -16.388964 0.929589 -6.140614 -17.193548 0.000000 0.000000 0.000000 20.197687 30.392549 -26.261406 -2.959888 -10.629806 31.041281 1.359465 21.987133 -1.329032 -1.579932 -7.929980 22.501561 -11.893249 -10.430213 3.433834 -1.581340 -14.248030 0.284917 4.817202 -7.110581 0.840231 1.540635 21.261151 -6.789681 -17.824064 31.526005 11.128291 -2.447243 14.067729 7.742612 0.000000 0.000000 0.000000 252.753751 -43.783429 174.391192 20.956175 -31.777093 6.026838 -45.201248 -149.593769 8.123284 0.000000 0.000000 0.000000 -7.125000 0.000000 0.000000 -37.428780 -69.612887 156.854914 0.000000 0.000000 0.000000 -64.719042 -37.395941 -26.974760 -124.567508 -54.964576 -89.430110 -83.050990 -60.303138 -26.049277 0.000000 0.000000 0.000000 7.125000 0.000000 0.000000 -31.680467 -39.268043 -47.761974
